name ./resultDataOpenSim/trcMotMarkerGrf/sub09/grf-15-05.mot
datacolumns 19
datarows 27
range 0.97600000 1.08000000
endheader

                time	     ground_force_vx	     ground_force_vy	     ground_force_vz	     ground_force_px	     ground_force_py	     ground_force_pz	   l_ground_force_vx	   l_ground_force_vy	   l_ground_force_vz	   l_ground_force_px	   l_ground_force_py	   l_ground_force_pz	     ground_torque_x	     ground_torque_y	     ground_torque_z	   l_ground_torque_x	   l_ground_torque_y	   l_ground_torque_z	
          0.97600000	          0.00000000	          0.00000000	          0.00000000	          0.00000000	          0.00000000	          0.00000000	         27.85401832	        437.30463573	         11.14242423	          0.19715533	         -0.10000000	         -0.00236613	          0.00000000	          0.00000000	          0.00000000	          0.00000000	         -2.10562513	          0.00000000	
          0.98000000	          0.00000000	          0.00000000	          0.00000000	          0.00000000	          0.00000000	          0.00000000	         30.26235052	        439.42106599	         10.57724191	          0.19799604	         -0.10000000	         -0.00158792	          0.00000000	          0.00000000	          0.00000000	          0.00000000	         -2.33518223	          0.00000000	
          0.98400000	          0.00000000	          0.00000000	          0.00000000	          0.00000000	          0.00000000	          0.00000000	         32.90889596	        442.40540653	          9.96043428	          0.19882035	         -0.10000000	         -0.00078969	          0.00000000	          0.00000000	          0.00000000	          0.00000000	         -2.56487950	          0.00000000	
          0.98800000	          0.00000000	          0.00000000	          0.00000000	          0.00000000	          0.00000000	          0.00000000	         35.82025947	        446.30028853	          9.26450030	          0.19965866	         -0.10000000	          0.00004357	          0.00000000	          0.00000000	          0.00000000	          0.00000000	         -2.79258098	          0.00000000	
          0.99200000	          0.00000000	          0.00000000	          0.00000000	          0.00000000	          0.00000000	          0.00000000	         39.01868309	        451.00582129	          8.46411577	          0.20055544	         -0.10000000	          0.00091991	          0.00000000	          0.00000000	          0.00000000	          0.00000000	         -3.01710449	          0.00000000	
          0.99600000	          0.00000000	          0.00000000	          0.00000000	          0.00000000	          0.00000000	          0.00000000	         42.52620700	        456.33224926	          7.54415960	          0.20154544	         -0.10000000	          0.00182703	          0.00000000	          0.00000000	          0.00000000	          0.00000000	         -3.23745864	          0.00000000	
          1.00000000	          0.00000000	          0.00000000	          0.00000000	          0.00000000	          0.00000000	          0.00000000	         46.33333336	        462.11298948	          6.51676473	          0.20263483	         -0.10000000	          0.00274695	          0.00000000	          0.00000000	          0.00000000	          0.00000000	         -3.45216575	          0.00000000	
          1.00400000	          0.00000000	          0.00000000	          0.00000000	          0.00000000	          0.00000000	          0.00000000	         50.36950763	        468.27194671	          5.43275148	          0.20378872	         -0.10000000	          0.00367320	          0.00000000	          0.00000000	          0.00000000	          0.00000000	         -3.65911927	          0.00000000	
          1.00800000	          0.00000000	          0.00000000	          0.00000000	          0.00000000	          0.00000000	          0.00000000	         54.52737263	        474.78701941	          4.35789643	          0.20494054	         -0.10000000	          0.00459090	          0.00000000	          0.00000000	          0.00000000	          0.00000000	         -3.85596059	          0.00000000	
          1.01200000	          0.00000000	          0.00000000	          0.00000000	          0.00000000	          0.00000000	          0.00000000	         58.71135974	        481.60928664	          3.33302744	          0.20602324	         -0.10000000	          0.00546735	          0.00000000	          0.00000000	          0.00000000	          0.00000000	         -4.04060949	          0.00000000	
          1.01600000	          0.00000000	          0.00000000	          0.00000000	          0.00000000	          0.00000000	          0.00000000	         62.86405011	        488.64025683	          2.35935927	          0.20698720	         -0.10000000	          0.00626147	          0.00000000	          0.00000000	          0.00000000	          0.00000000	         -4.21158027	          0.00000000	
          1.02000000	          0.00000000	          0.00000000	          0.00000000	          0.00000000	          0.00000000	          0.00000000	         66.97225956	        495.77978799	          1.42015889	          0.20782358	         -0.10000000	          0.00695692	          0.00000000	          0.00000000	          0.00000000	          0.00000000	         -4.36799424	          0.00000000	
          1.02400000	          0.00000000	          0.00000000	          0.00000000	          0.00000000	          0.00000000	          0.00000000	         71.05135022	        502.95479232	          0.51776521	          0.20854018	         -0.10000000	          0.00756330	          0.00000000	          0.00000000	          0.00000000	          0.00000000	         -4.50947115	          0.00000000	
          1.02800000	          0.00000000	          0.00000000	          0.00000000	          0.00000000	          0.00000000	          0.00000000	         75.11206329	        510.09241456	         -0.31313308	          0.20913309	         -0.10000000	          0.00809468	          0.00000000	          0.00000000	          0.00000000	          0.00000000	         -4.63612170	          0.00000000	
          1.03200000	          0.00000000	          0.00000000	          0.00000000	          0.00000000	          0.00000000	          0.00000000	         79.15065012	        517.09675238	         -1.03107048	          0.20960308	         -0.10000000	          0.00857058	          0.00000000	          0.00000000	          0.00000000	          0.00000000	         -4.74870120	          0.00000000	
          1.03600000	          0.00000000	          0.00000000	          0.00000000	          0.00000000	          0.00000000	          0.00000000	         83.17231913	        523.85344866	         -1.62182180	          0.20999256	         -0.10000000	          0.00903101	          0.00000000	          0.00000000	          0.00000000	          0.00000000	         -4.84879230	          0.00000000	
          1.04000000	          0.00000000	          0.00000000	          0.00000000	          0.00000000	          0.00000000	          0.00000000	         87.20268669	        530.24314076	         -2.11159196	          0.21037327	         -0.10000000	          0.00951921	          0.00000000	          0.00000000	          0.00000000	          0.00000000	         -4.93879949	          0.00000000	
          1.04400000	          0.00000000	          0.00000000	          0.00000000	          0.00000000	          0.00000000	          0.00000000	         91.26749301	        536.15910265	         -2.55836603	          0.21078874	         -0.10000000	          0.01005305	          0.00000000	          0.00000000	          0.00000000	          0.00000000	         -5.02160938	          0.00000000	
          1.04800000	          0.00000000	          0.00000000	          0.00000000	          0.00000000	          0.00000000	          0.00000000	         95.37332124	        541.51416873	         -3.02933217	          0.21124784	         -0.10000000	          0.01063109	          0.00000000	          0.00000000	          0.00000000	          0.00000000	         -5.09996496	          0.00000000	
          1.05200000	          0.00000000	          0.00000000	          0.00000000	          0.00000000	          0.00000000	          0.00000000	         99.51084471	        546.24004977	         -3.57406250	          0.21175005	         -0.10000000	          0.01124172	          0.00000000	          0.00000000	          0.00000000	          0.00000000	         -5.17580756	          0.00000000	
          1.05600000	          0.00000000	          0.00000000	          0.00000000	          0.00000000	          0.00000000	          0.00000000	        103.66267937	        550.29871590	         -4.20978907	          0.21229179	         -0.10000000	          0.01187590	          0.00000000	          0.00000000	          0.00000000	          0.00000000	         -5.24988624	          0.00000000	
          1.06000000	          0.00000000	          0.00000000	          0.00000000	          0.00000000	          0.00000000	          0.00000000	        107.80012414	        553.67975190	         -4.93274010	          0.21286097	         -0.10000000	          0.01253377	          0.00000000	          0.00000000	          0.00000000	          0.00000000	         -5.32172937	          0.00000000	
          1.06400000	          0.00000000	          0.00000000	          0.00000000	          0.00000000	          0.00000000	          0.00000000	        111.88365820	        556.37613380	         -5.74937571	          0.21343839	         -0.10000000	          0.01321376	          0.00000000	          0.00000000	          0.00000000	          0.00000000	         -5.38978971	          0.00000000	
          1.06800000	          0.00000000	          0.00000000	          0.00000000	          0.00000000	          0.00000000	          0.00000000	        115.87502115	        558.37303435	         -6.69489551	          0.21401129	         -0.10000000	          0.01390792	          0.00000000	          0.00000000	          0.00000000	          0.00000000	         -5.45149725	          0.00000000	
          1.07200000	          0.00000000	          0.00000000	          0.00000000	          0.00000000	          0.00000000	          0.00000000	        119.73792931	        559.63622270	         -7.80934230	          0.21459044	         -0.10000000	          0.01460244	          0.00000000	          0.00000000	          0.00000000	          0.00000000	         -5.50314853	          0.00000000	
          1.07600000	          0.00000000	          0.00000000	          0.00000000	          0.00000000	          0.00000000	          0.00000000	        123.42106916	        560.08369896	         -9.08465798	          0.21520613	         -0.10000000	          0.01527608	          0.00000000	          0.00000000	          0.00000000	          0.00000000	         -5.53986594	          0.00000000	
          1.08000000	          0.00000000	          0.00000000	          0.00000000	          0.00000000	          0.00000000	          0.00000000	        126.85412780	        559.58236371	        -10.43703591	          0.21588426	         -0.10000000	          0.01591416	          0.00000000	          0.00000000	          0.00000000	          0.00000000	         -5.55603605	          0.00000000	
